<svg width="25" height="13" viewBox="0 0 25 13" fill="none" xmlns="http://www.w3.org/2000/svg">
<path fill-rule="evenodd" clip-rule="evenodd" d="M24.1963 4.38525H0V9.5649C0 9.8656 0.119465 10.154 0.332051 10.3666C0.544701 10.5792 0.833035 10.6987 1.13375 10.6987H22.8079C23.1761 10.6987 23.5293 10.5524 23.7896 10.292C24.05 10.0316 24.1963 9.67854 24.1963 9.31033C24.1963 7.45158 24.1963 4.38525 24.1963 4.38525Z" fill="#FAF4B5"/>
<path d="M12.0981 13C18.7797 13 24.1962 11.4823 24.1962 9.61004C24.1962 7.73782 18.7797 6.22009 12.0981 6.22009C5.4165 6.22009 0 7.73782 0 9.61004C0 11.4823 5.4165 13 12.0981 13Z" fill="#FAF4B5"/>
<path d="M12.0981 8.70813C18.7797 8.70813 24.1962 6.75875 24.1962 4.35406C24.1962 1.94938 18.7797 0 12.0981 0C5.4165 0 0 1.94938 0 4.35406C0 6.75875 5.4165 8.70813 12.0981 8.70813Z" fill="#E58544"/>
</svg>
